<svg width="100%" height="100%" version = "1.1" viewBox="0 0 100 100" xmlns = "http://www.w3.org/2000/svg">
    <g id="SvgjsG2746" featurekey="symbolFeature-0"
       fill="#2878EB">
        <g xmlns="http://www.w3.org/2000/svg">
            <path fill="none"
                  d="M31.9,34.2c-3.8,0-6.8,3.1-6.8,6.8c0,3.8,3.1,6.8,6.8,6.8c1.3,0,2.5-0.4,3.5-1l6.3,6.3v26.5   c0,0.9,0.7,1.6,1.6,1.6s1.6-0.7,1.6-1.6V52.5c0-0.2,0-0.4-0.1-0.6c0,0,0,0,0,0c-0.1-0.2-0.2-0.4-0.4-0.5l-6.8-6.8   c0.6-1,1-2.2,1-3.5C38.7,37.2,35.7,34.2,31.9,34.2z"></path>
            <path fill="none"
                  d="M50,81.3c0.9,0,1.6-0.7,1.6-1.6V37.9c4.5-0.8,8-4.7,8-9.5c0-5.3-4.3-9.7-9.7-9.7s-9.7,4.3-9.7,9.7   c0,4.8,3.5,8.7,8,9.5v41.7C48.4,80.5,49.1,81.3,50,81.3z M43.6,28.4c0-3.5,2.9-6.4,6.4-6.4s6.4,2.9,6.4,6.4c0,3.5-2.9,6.4-6.4,6.4   S43.6,31.9,43.6,28.4z"></path>
            <path fill="none"
                  d="M68.1,34.2c-3.8,0-6.8,3.1-6.8,6.8c0,1.3,0.4,2.5,1,3.5l-6.8,6.8c-0.2,0.2-0.3,0.3-0.4,0.5c0,0,0,0,0,0   C55,52.1,55,52.3,55,52.5v27.1c0,0.9,0.7,1.6,1.6,1.6s1.6-0.7,1.6-1.6V53.2l6.3-6.3c1,0.6,2.2,1,3.5,1c3.8,0,6.8-3.1,6.8-6.8   C74.9,37.2,71.9,34.2,68.1,34.2z"></path>
            <path
                d="M76.8,9.7H23.2c-7.4,0-13.5,6.1-13.5,13.5v53.7c0,7.4,6.1,13.5,13.5,13.5h53.7c7.4,0,13.5-6.1,13.5-13.5V23.2   C90.3,15.7,84.3,9.7,76.8,9.7z M44.6,51.3c0.2,0.2,0.3,0.3,0.4,0.5c0,0,0,0,0,0c0.1,0.2,0.1,0.4,0.1,0.6v27.1   c0,0.9-0.7,1.6-1.6,1.6s-1.6-0.7-1.6-1.6V53.2l-6.3-6.3c-1,0.6-2.2,1-3.5,1c-3.8,0-6.8-3.1-6.8-6.8c0-3.8,3.1-6.8,6.8-6.8   c3.8,0,6.8,3.1,6.8,6.8c0,1.3-0.4,2.5-1,3.5L44.6,51.3z M40.3,28.4c0-5.3,4.3-9.7,9.7-9.7s9.7,4.3,9.7,9.7c0,4.8-3.5,8.7-8,9.5   v41.7c0,0.9-0.7,1.6-1.6,1.6s-1.6-0.7-1.6-1.6V37.9C43.8,37.1,40.3,33.2,40.3,28.4z M68.1,47.8c-1.3,0-2.5-0.4-3.5-1l-6.3,6.3v26.5   c0,0.9-0.7,1.6-1.6,1.6S55,80.5,55,79.6V52.5c0-0.2,0-0.4,0.1-0.6c0,0,0,0,0,0c0.1-0.2,0.2-0.4,0.4-0.5l6.8-6.8c-0.6-1-1-2.2-1-3.5   c0-3.8,3.1-6.8,6.8-6.8c3.8,0,6.8,3.1,6.8,6.8C74.9,44.8,71.9,47.8,68.1,47.8z"></path>
            <path
                d="M56.4,28.4c0-3.5-2.9-6.4-6.4-6.4s-6.4,2.9-6.4,6.4c0,3.5,2.9,6.4,6.4,6.4S56.4,31.9,56.4,28.4z"></path>
        </g>
    </g>
</svg>
